# xmcd
#
# Track frame offsets:
#	150
#	10502
#	63429
#	100961
#	103388
#
# Disc length: 1717 seconds
#
# Revision: 1
# Processed by: cddbd v1.5.2PL0 Copyright (c) Steve Scherf et al.
# Submitted via: audiograbber 1.83.01
#
DISCID=3906b305
DTITLE=Grateful Dead - 79-10-25 Veterans Memorial Coliseum, New Haven CT
DYEAR=1900
DGENRE=
TTITLE0=Space
TTITLE1=Stella Blue
TTITLE2=Good Lovin'
TTITLE3=Tuning
TTITLE4=US Blues
EXTD=
EXTT0=
EXTT1=
EXTT2=
EXTT3=
EXTT4=
PLAYORDER=
